<?xml version="1.0" encoding="UTF-8" standalone="no"?>
<!-- Created with Inkscape (http://www.inkscape.org/) -->

<svg
   xmlns:dc="http://purl.org/dc/elements/1.1/"
   xmlns:cc="http://creativecommons.org/ns#"
   xmlns:rdf="http://www.w3.org/1999/02/22-rdf-syntax-ns#"
   xmlns:svg="http://www.w3.org/2000/svg"
   xmlns="http://www.w3.org/2000/svg"
   xmlns:sodipodi="http://sodipodi.sourceforge.net/DTD/sodipodi-0.dtd"
   xmlns:inkscape="http://www.inkscape.org/namespaces/inkscape"
   width="640"
   height="960"
   id="svg2"
   version="1.1"
   inkscape:version="0.48.5 r10040"
   sodipodi:docname="backgroundMoutain.svg"
   inkscape:export-filename="C:\dev\html5\flyingrabbithd\images\backgroundForest.png"
   inkscape:export-xdpi="90"
   inkscape:export-ydpi="90">
  <defs
     id="defs4" />
  <sodipodi:namedview
     id="base"
     pagecolor="#ffffff"
     bordercolor="#666666"
     borderopacity="1.0"
     inkscape:pageopacity="0.0"
     inkscape:pageshadow="2"
     inkscape:zoom="0.7"
     inkscape:cx="668.96285"
     inkscape:cy="558.48512"
     inkscape:document-units="px"
     inkscape:current-layer="layer1"
     showgrid="false"
     inkscape:window-width="1680"
     inkscape:window-height="988"
     inkscape:window-x="1358"
     inkscape:window-y="-8"
     inkscape:window-maximized="1" />
  <metadata
     id="metadata7">
    <rdf:RDF>
      <cc:Work
         rdf:about="">
        <dc:format>image/svg+xml</dc:format>
        <dc:type
           rdf:resource="http://purl.org/dc/dcmitype/StillImage" />
        <dc:title></dc:title>
      </cc:Work>
    </rdf:RDF>
  </metadata>
  <g
     inkscape:label="Calque 1"
     inkscape:groupmode="layer"
     id="layer1"
     transform="translate(0,-92.362168)">
    <path
       id="path2993"
       d="m 639.99999,1052.3622 -639.9999881760239,0 0,-960.000009 639.9999881760239,0 0,960.000009 z"
       style="fill:#c5c7c9;fill-rule:evenodd;stroke:none"
       inkscape:connector-curvature="0" />
    <g
       style="fill-rule:evenodd"
       id="g2995"
       transform="matrix(2.3435378,0,0,5.85886,-8.5928324,-0.23474822)">
      <path
         id="path2997"
         d="m 223.902,55.0211 c -0.633,-0.1619 -1.295,-0.2481 -1.979,-0.2481 -4.4,0 -7.967,3.5671 -7.967,7.9671 0,1.5015 0.415,2.9055 1.137,4.104 l -0.052,-6e-4 c -2.622,0 -4.986,1.099 -6.66,2.8607 -3.046,-1.7767 -6.589,-2.7947 -10.369,-2.7947 -1.304,0 -2.579,0.1222 -3.815,0.3538 -0.513,-3.6161 -3.621,-6.3975 -7.379,-6.3975 -4.116,0 -7.453,3.337 -7.453,7.4531 0,1.0378 0.212,2.0259 0.596,2.9234 -1.186,1.3909 -1.902,3.195 -1.902,5.1661 0,1.249 0.287,2.4308 0.8,3.4833 -0.923,2.3133 -1.439,4.8336 -1.459,7.4715 -3.771,-4.1672 -9.222,-6.7856 -15.285,-6.7856 -1.304,0 -2.579,0.1222 -3.816,0.3538 -0.512,-3.6165 -3.62,-6.3975 -7.378,-6.3975 -4.116,0 -7.453,3.3366 -7.453,7.4532 0,2.402 1.137,4.5388 2.901,5.9016 -3.036,3.5901 -4.867,8.2316 -4.867,13.3013 0,11.384 9.228,20.612 20.613,20.612 8.009,0 14.953,-4.568 18.364,-11.243 4.077,5.176 10.399,8.499 17.498,8.499 2.196,0 4.317,-0.319 6.321,-0.912 -0.483,1.589 -0.744,3.273 -0.744,5.02 0,9.516 7.715,17.23 17.231,17.23 9.516,0 17.231,-7.714 17.231,-17.23 0,-1.295 -0.144,-2.556 -0.415,-3.768 1.002,0.252 2.051,0.386 3.131,0.386 0.684,0 1.356,-0.054 2.011,-0.158 3.133,4.304 8.209,7.102 13.94,7.102 9.516,0 17.23,-7.715 17.23,-17.23 0,-1.295 -0.144,-2.556 -0.414,-3.769 1.002,0.253 2.05,0.387 3.13,0.387 l 0.129,-0.002 0,-77.1181 c -9.836,0 -17.809,7.9736 -17.809,17.8095 0,2.245 0.416,4.392 1.174,6.3706 -0.85,0.4501 -1.649,0.9822 -2.388,1.5857 -2.38,-7.0345 -9.036,-12.098 -16.874,-12.098 -7.934,0 -14.655,5.1885 -16.959,12.3574 z"
         style="fill:#d2ebf5;stroke:none"
         inkscape:connector-curvature="0" />
      <path
         id="path2999"
         d="m 227.209,64.2804 c -0.633,-0.1619 -1.296,-0.2483 -1.979,-0.2483 -4.4,0 -7.967,3.5671 -7.967,7.9674 0,1.5012 0.415,2.9052 1.137,4.1036 l -0.053,-3e-4 c -2.621,0 -4.986,1.099 -6.659,2.8608 -3.046,-1.7768 -6.589,-2.795 -10.369,-2.795 -1.304,0 -2.579,0.1225 -3.815,0.3541 -0.513,-3.6164 -3.621,-6.3978 -7.379,-6.3978 -4.116,0 -7.453,3.337 -7.453,7.4534 0,1.0375 0.212,2.0259 0.596,2.9233 -1.187,1.391 -1.903,3.1948 -1.903,5.1659 0,1.2492 0.288,2.431 0.8,3.4833 -0.923,2.3133 -1.438,4.8339 -1.458,7.4718 -3.772,-4.1672 -9.223,-6.7856 -15.286,-6.7856 -1.304,0 -2.579,0.1222 -3.815,0.3535 -0.513,-3.6162 -3.621,-6.3975 -7.378,-6.3975 -4.117,0 -7.454,3.3369 -7.454,7.4531 0,2.4024 1.138,4.5391 2.902,5.9017 -3.036,3.5902 -4.867,8.2322 -4.867,13.3012 0,11.384 9.228,20.613 20.612,20.613 8.01,0 14.953,-4.569 18.365,-11.243 4.076,5.175 10.399,8.498 17.498,8.498 2.196,0 4.317,-0.319 6.321,-0.911 -0.483,1.588 -0.744,3.273 -0.744,5.019 0,9.516 7.715,17.23 17.231,17.23 9.516,0 17.23,-7.714 17.23,-17.23 0,-1.295 -0.143,-2.555 -0.414,-3.768 1.002,0.252 2.05,0.387 3.131,0.387 0.684,0 1.355,-0.055 2.011,-0.159 3.133,4.304 8.209,7.102 13.939,7.102 8.148,0 14.974,-5.656 16.769,-13.255 l 0,-84.1695 c -8.256,1.5503 -14.503,8.796 -14.503,17.5023 0,2.2447 0.417,4.392 1.175,6.3706 -0.85,0.4501 -1.649,0.9821 -2.389,1.5857 -2.38,-7.0345 -9.035,-12.0981 -16.874,-12.0981 -7.934,0 -14.655,5.1886 -16.958,12.3574 z"
         style="fill:#c5e8f3;stroke:none"
         inkscape:connector-curvature="0" />
      <path
         id="path3001"
         d="m 235.469,88.1864 c -1.325,0 -2.622,0.123 -3.88,0.3586 -0.657,-3.4679 -3.703,-6.0905 -7.363,-6.0905 -4.139,0 -7.495,3.3559 -7.495,7.4953 0,2.3046 1.04,4.3659 2.677,5.7411 -1.224,1.4607 -2.252,3.0897 -3.044,4.8481 -3.555,-4.0842 -8.793,-6.6669 -14.633,-6.6669 -1.227,0 -2.426,0.1151 -3.589,0.3328 -0.482,-3.4019 -3.406,-6.0185 -6.942,-6.0185 -3.872,0 -7.011,3.1391 -7.011,7.0118 0,2.2597 1.069,4.2701 2.73,5.5518 -2.857,3.378 -4.58,7.744 -4.58,12.514 0,10.71 8.682,19.391 19.392,19.391 7.536,0 14.067,-4.298 17.277,-10.577 3.835,4.869 9.783,7.995 16.461,7.995 2.066,0 4.062,-0.3 5.947,-0.857 -0.454,1.494 -0.7,3.079 -0.7,4.722 0,8.952 7.258,16.21 16.211,16.21 8.952,0 16.21,-7.258 16.21,-16.21 0,-1.218 -0.136,-2.404 -0.39,-3.545 0.942,0.237 1.929,0.364 2.945,0.364 0.359,0 0.715,-0.017 1.066,-0.048 l 0,-72.478 c -0.313,-0.0173 -0.628,-0.027 -0.945,-0.027 -9.253,0 -16.755,7.5014 -16.755,16.7548 0,2.1121 0.392,4.1321 1.105,5.993 -1.084,0.5746 -2.081,1.2909 -2.968,2.1238 -1.517,-1.3227 -3.501,-2.1238 -5.673,-2.1238 -4.753,0 -8.609,3.8384 -8.638,8.5848 -2.305,-0.8725 -4.804,-1.3502 -7.415,-1.3502 z"
         style="fill:#ffffff;stroke:none"
         inkscape:connector-curvature="0" />
      <path
         id="path3003"
         d="m 242.247,96.9123 c -1.326,0 -2.623,0.1233 -3.88,0.3589 -0.658,-3.4682 -3.704,-6.0908 -7.363,-6.0908 -4.14,0 -7.496,3.3559 -7.496,7.4956 0,2.305 1.041,4.366 2.677,5.741 -1.223,1.46 -2.252,3.089 -3.044,4.848 -3.555,-4.084 -8.792,-6.667 -14.632,-6.667 -1.227,0 -2.426,0.115 -3.59,0.333 -0.482,-3.4021 -3.406,-6.0187 -6.941,-6.0187 -3.873,0 -7.012,3.1397 -7.012,7.0117 0,2.26 1.07,4.27 2.73,5.552 -2.856,3.378 -4.579,7.744 -4.579,12.514 0,10.71 8.682,19.391 19.392,19.391 7.535,0 14.067,-4.298 17.277,-10.577 3.834,4.869 9.783,7.995 16.461,7.995 2.066,0 4.062,-0.3 5.947,-0.857 -0.455,1.494 -0.7,3.079 -0.7,4.722 0,8.952 7.258,16.21 16.21,16.21 5.355,0 10.102,-2.597 13.054,-6.6 l 0,-84.2998 c -6.378,2.3687 -10.922,8.5085 -10.922,15.7108 0,2.1118 0.392,4.1318 1.105,5.993 -1.084,0.5746 -2.082,1.2906 -2.968,2.1235 -1.518,-1.3227 -3.502,-2.1238 -5.673,-2.1238 -4.753,0 -8.609,3.8387 -8.639,8.585 -2.304,-0.8725 -4.803,-1.3504 -7.414,-1.3504 z"
         style="fill:#f7f7f8;stroke:none"
         inkscape:connector-curvature="0" />
    </g>
    <g
       style="fill-rule:evenodd"
       id="g3005"
       transform="matrix(2.3435378,0,0,5.85886,-8.5928324,-0.23474822)">
      <path
         id="path3007"
         d="m 56.5223,55.0211 c 0.6329,-0.1619 1.2957,-0.2481 1.9791,-0.2481 4.4002,0 7.9674,3.5671 7.9674,7.9671 0,1.5015 -0.4153,2.9055 -1.1373,4.104 l 0.0524,-6e-4 c 2.6218,0 4.9862,1.099 6.6595,2.8607 3.0461,-1.7767 6.5888,-2.7947 10.3694,-2.7947 1.3036,0 2.5789,0.1222 3.8151,0.3538 0.5128,-3.6161 3.6204,-6.3975 7.3786,-6.3975 4.1165,0 7.4535,3.337 7.4535,7.4531 0,1.0378 -0.213,2.0259 -0.596,2.9234 1.186,1.3909 1.902,3.195 1.902,5.1661 0,1.249 -0.287,2.4308 -0.8,3.4833 0.923,2.3133 1.439,4.8336 1.459,7.4715 3.771,-4.1672 9.222,-6.7856 15.285,-6.7856 1.304,0 2.579,0.1222 3.816,0.3538 0.512,-3.6165 3.62,-6.3975 7.378,-6.3975 4.116,0 7.453,3.3366 7.453,7.4532 0,2.402 -1.137,4.5388 -2.902,5.9016 3.036,3.5901 4.868,8.2316 4.868,13.3013 0,11.384 -9.229,20.612 -20.613,20.612 -8.01,0 -14.953,-4.568 -18.3646,-11.243 -4.0763,5.176 -10.3989,8.499 -17.4977,8.499 -2.196,0 -4.3172,-0.319 -6.3207,-0.912 0.4827,1.589 0.7432,3.273 0.7432,5.02 0,9.516 -7.7145,17.23 -17.2307,17.23 -9.5162,0 -17.2306,-7.714 -17.2306,-17.23 0,-1.295 0.1439,-2.556 0.4144,-3.768 -1.0018,0.252 -2.0503,0.386 -3.1303,0.386 -0.6846,0 -1.3561,-0.054 -2.0115,-0.158 -3.1328,4.304 -8.2088,7.102 -13.9394,7.102 -9.5161,0 -17.23064,-7.715 -17.23064,-17.23 0,-1.295 0.144,-2.556 0.41443,-3.769 -1.00205,0.253 -2.0503,0.387 -3.13058,0.387 l -0.1287,-0.002 0,-77.1181 c 9.83599,0 17.80949,7.9736 17.80949,17.8095 0,2.245 -0.4164,4.392 -1.1744,6.3706 0.8496,0.4501 1.6489,0.9822 2.3882,1.5857 2.3803,-7.0345 9.036,-12.098 16.8741,-12.098 7.9339,0 14.6551,5.1885 16.9583,12.3574 z"
         style="fill:#d2ebf5;stroke:none"
         inkscape:connector-curvature="0" />
      <path
         id="path3009"
         d="m 53.2157,64.2804 c 0.6326,-0.1619 1.2957,-0.2483 1.9788,-0.2483 4.4005,0 7.9676,3.5671 7.9676,7.9674 0,1.5012 -0.4155,2.9052 -1.1375,4.1036 l 0.0527,-3e-4 c 2.6215,0 4.9862,1.099 6.6592,2.8608 3.0461,-1.7768 6.5891,-2.795 10.3697,-2.795 1.3036,0 2.5787,0.1225 3.8148,0.3541 0.5128,-3.6164 3.6207,-6.3978 7.3786,-6.3978 4.1165,0 7.4532,3.337 7.4532,7.4534 0,1.0375 -0.2124,2.0259 -0.5956,2.9233 1.186,1.391 1.9023,3.1948 1.9023,5.1659 0,1.2492 -0.2877,2.431 -0.8002,3.4833 0.923,2.3133 1.4386,4.8339 1.4584,7.4718 3.7723,-4.1672 9.2223,-6.7856 15.2863,-6.7856 1.303,0 2.578,0.1222 3.815,0.3535 0.512,-3.6162 3.62,-6.3975 7.378,-6.3975 4.116,0 7.453,3.3369 7.453,7.4531 0,2.4024 -1.137,4.5391 -2.901,5.9017 3.036,3.5902 4.867,8.2322 4.867,13.3012 0,11.384 -9.229,20.613 -20.612,20.613 -8.011,0 -14.953,-4.569 -18.3653,-11.243 -4.0762,5.175 -10.3989,8.498 -17.4979,8.498 -2.1958,0 -4.3172,-0.319 -6.3207,-0.911 0.4827,1.588 0.7435,3.273 0.7435,5.019 0,9.516 -7.7145,17.23 -17.2307,17.23 -9.5162,0 -17.2307,-7.714 -17.2307,-17.23 0,-1.295 0.1438,-2.555 0.4145,-3.768 -1.0021,0.252 -2.0503,0.387 -3.1306,0.387 -0.6843,0 -1.3558,-0.055 -2.0115,-0.159 -3.1326,4.304 -8.2088,7.102 -13.9391,7.102 -8.1479,0 -14.97427,-5.656 -16.76889,-13.255 l 0,-84.1695 c 8.25589,1.5503 14.50289,8.796 14.50289,17.5023 0,2.2447 -0.4167,4.392 -1.1744,6.3706 0.8496,0.4501 1.6489,0.9821 2.3882,1.5857 2.38,-7.0345 9.0357,-12.0981 16.8741,-12.0981 7.9339,0 14.6551,5.1886 16.9583,12.3574 z"
         style="fill:#c5e8f3;stroke:none"
         inkscape:connector-curvature="0" />
      <path
         id="path3011"
         d="m 44.9552,88.1864 c 1.3255,0 2.6226,0.123 3.8801,0.3586 0.6576,-3.4679 3.7037,-6.0905 7.3633,-6.0905 4.1394,0 7.4953,3.3559 7.4953,7.4953 0,2.3046 -1.0403,4.3659 -2.6767,5.7411 1.2231,1.4607 2.2518,3.0897 3.0438,4.8481 3.5549,-4.0842 8.7922,-6.6669 14.6327,-6.6669 1.2266,0 2.4259,0.1151 3.5893,0.3328 0.4821,-3.4019 3.4061,-6.0185 6.9414,-6.0185 3.8724,0 7.0115,3.1391 7.0115,7.0118 0,2.2597 -1.0695,4.2701 -2.7297,5.5518 2.8562,3.378 4.5791,7.744 4.5791,12.514 0,10.71 -8.6817,19.391 -19.3916,19.391 -7.5356,0 -14.0675,-4.298 -17.2771,-10.577 -3.8347,4.869 -9.783,7.995 -16.4614,7.995 -2.0659,0 -4.0615,-0.3 -5.9465,-0.857 0.4544,1.494 0.6996,3.079 0.6996,4.722 0,8.952 -7.2576,16.21 -16.2102,16.21 -8.9524,0 -16.20994,-7.258 -16.20994,-16.21 0,-1.218 0.13521,-2.404 0.38976,-3.545 -0.94252,0.237 -1.92898,0.364 -2.9452,0.364 -0.35943,0 -0.71489,-0.017 -1.06611,-0.048 l 0,-72.478 c 0.31267,-0.0173 0.62788,-0.027 0.94508,-0.027 9.25341,0 16.75471,7.5014 16.75471,16.7548 0,2.1121 -0.392,4.1321 -1.1049,5.993 1.0839,0.5746 2.0815,1.2909 2.9679,2.1238 1.5176,-1.3227 3.5016,-2.1238 5.6729,-2.1238 4.7532,0 8.6094,3.8384 8.6386,8.5848 2.3049,-0.8725 4.8036,-1.3502 7.4143,-1.3502 z"
         style="fill:#ffffff;stroke:none"
         inkscape:connector-curvature="0" />
      <path
         id="path3013"
         d="m 38.1776,96.9123 c 1.3257,0 2.6226,0.1233 3.88,0.3589 0.6577,-3.4682 3.7041,-6.0908 7.3633,-6.0908 4.1397,0 7.4954,3.3559 7.4954,7.4956 0,2.305 -1.0403,4.366 -2.6768,5.741 1.2232,1.46 2.2519,3.089 3.0439,4.848 3.5549,-4.084 8.7922,-6.667 14.6327,-6.667 1.2265,0 2.4259,0.115 3.5892,0.333 0.4822,-3.4021 3.4061,-6.0187 6.9415,-6.0187 3.8724,0 7.0118,3.1397 7.0118,7.0117 0,2.26 -1.0698,4.27 -2.7301,5.552 2.8562,3.378 4.5791,7.744 4.5791,12.514 0,10.71 -8.6816,19.391 -19.3915,19.391 -7.5356,0 -14.0675,-4.298 -17.2772,-10.577 -3.8347,4.869 -9.7829,7.995 -16.4613,7.995 -2.0659,0 -4.0615,-0.3 -5.9465,-0.857 0.4543,1.494 0.6995,3.079 0.6995,4.722 0,8.952 -7.2575,16.21 -16.2102,16.21 -5.3546,0 -10.10207,-2.597 -13.05379,-6.6 l 0,-84.2998 c 6.37769,2.3687 10.92219,8.5085 10.92219,15.7108 0,2.1118 -0.392,4.1318 -1.105,5.993 1.084,0.5746 2.0815,1.2906 2.9679,2.1235 1.5177,-1.3227 3.5017,-2.1238 5.673,-2.1238 4.7531,0 8.6094,3.8387 8.6386,8.585 2.3048,-0.8725 4.8036,-1.3504 7.4143,-1.3504 z"
         style="fill:#f7f7f8;stroke:none"
         inkscape:connector-curvature="0" />
    </g>
    <path
       id="path3015"
       d="m 639.99999,492.11633 c -57.25966,0 -100.28701,115.23028 -148.2522,73.44138 C 458.07584,536.22357 416.05386,349.53507 378.06512,340.60031 340.07871,331.66498 322.82559,564.60623 300.8807,555.68787 278.93816,546.76834 235.33664,338.78819 208.0452,337.56312 180.75399,336.33567 131.55519,543.65026 94.767269,544.83079 57.978413,546.01199 45.930979,492.11633 1.8239761e-6,492.11455 l 0,310.64848 639.9999881760239,0 0,-310.64674 z"
       style="fill:#b9aca0;fill-rule:evenodd;stroke:none"
       inkscape:connector-curvature="0" />
    <path
       id="path3017"
       d="M 1.823976e-6,595.40039 C 6.608572,574.66533 14.930887,555.31229 28.835584,556.35751 c 28.835807,2.16783 61.15743,81.29112 96.655226,72.88366 35.49732,-8.40161 49.5187,-73.17013 87.507,-82.10428 37.98897,-8.93715 70.43291,88.7951 110.50272,88.83611 40.06981,0.0469 73.87534,-93.25022 101.16584,-94.47819 27.29049,-1.22685 64.51525,75.9349 101.3041,77.11253 36.78886,1.18349 67.95322,-72.17937 114.02952,-40.38161 l 0,359.49028 -639.999988176024,0 0,-342.31562 z"
       style="fill:#c5c7c9;fill-rule:evenodd;stroke:none"
       inkscape:connector-curvature="0" />
    <path
       id="path3095"
       d="M 278.36165,510.77676 C 255.94571,447.06639 227.74358,338.44603 208.0452,337.56134 c -17.91494,-0.80562 -45.27199,88.25843 -72.36117,149.8837 44.56447,-99.67388 92.36889,-96.39348 142.67762,23.33172 z"
       style="fill:#c5b8ae;fill-rule:evenodd;stroke:none"
       inkscape:connector-curvature="0" />
    <path
       id="path3097"
       d="m 320.85936,507.9405 c 21.93551,-23.60478 39.37612,-109.8419 62.96149,-110.4471 28.18572,-0.72181 57.97209,122.20232 86.31015,133.15661 -29.08565,-63.39226 -61.85299,-182.94291 -92.06588,-190.0497 -26.11404,-6.14182 -42.42975,102.02328 -57.20576,167.34019 z"
       style="fill:#c5b8ae;fill-rule:evenodd;stroke:none"
       inkscape:connector-curvature="0" />
  </g>
</svg>
