<?xml version="1.0" encoding="UTF-8" standalone="no"?>
<!-- Created with Inkscape (http://www.inkscape.org/) -->

<svg
   xmlns:dc="http://purl.org/dc/elements/1.1/"
   xmlns:cc="http://creativecommons.org/ns#"
   xmlns:rdf="http://www.w3.org/1999/02/22-rdf-syntax-ns#"
   xmlns:svg="http://www.w3.org/2000/svg"
   xmlns="http://www.w3.org/2000/svg"
   xmlns:sodipodi="http://sodipodi.sourceforge.net/DTD/sodipodi-0.dtd"
   xmlns:inkscape="http://www.inkscape.org/namespaces/inkscape"
   width="640"
   height="960"
   id="svg2"
   version="1.1"
   inkscape:version="0.48.5 r10040"
   sodipodi:docname="backgroundHill.svg">
  <defs
     id="defs4" />
  <sodipodi:namedview
     id="base"
     pagecolor="#ffffff"
     bordercolor="#666666"
     borderopacity="1.0"
     inkscape:pageopacity="0.0"
     inkscape:pageshadow="2"
     inkscape:zoom="0.7"
     inkscape:cx="668.96285"
     inkscape:cy="558.48512"
     inkscape:document-units="px"
     inkscape:current-layer="layer1"
     showgrid="false"
     inkscape:window-width="1680"
     inkscape:window-height="988"
     inkscape:window-x="1358"
     inkscape:window-y="-8"
     inkscape:window-maximized="1" />
  <metadata
     id="metadata7">
    <rdf:RDF>
      <cc:Work
         rdf:about="">
        <dc:format>image/svg+xml</dc:format>
        <dc:type
           rdf:resource="http://purl.org/dc/dcmitype/StillImage" />
        <dc:title />
      </cc:Work>
    </rdf:RDF>
  </metadata>
  <g
     inkscape:label="Calque 1"
     inkscape:groupmode="layer"
     id="layer1"
     transform="translate(0,-92.362168)">
    <g
       style="fill-rule:evenodd"
       id="g3021"
       transform="matrix(2.3435378,0,0,5.85886,-8.5928324,-0.23474822)">
      <path
         id="path3023"
         d="m 136.317,98.7327 c -42.9571,0 -77.7804,18.2273 -77.7804,40.7113 0,1.26 0.1153,2.506 0.3294,3.736 l 154.901,0 c 0.214,-1.23 0.33,-2.476 0.33,-3.736 0,-22.484 -34.824,-40.7113 -77.78,-40.7113 z"
         style="fill:#6aab10;stroke:none"
         inkscape:connector-curvature="0" />
      <path
         id="path3025"
         d="m 136.317,98.7327 c -11.17,0 -21.787,1.2347 -31.387,3.4533 6.881,7.969 25.13,15.296 47.186,18.097 20.194,2.564 38.245,0.658 47.792,-4.284 -14.081,-10.444 -37.313,-17.2663 -63.591,-17.2663 z"
         style="fill:#78c013;stroke:none"
         inkscape:connector-curvature="0" />
    </g>
    <g
       style="fill-rule:evenodd"
       id="g3027"
       transform="matrix(2.3435378,0,0,5.85886,-8.5928324,-0.23474822)">
      <path
         id="path3029"
         d="m 3.66661,143.18 77.45049,0 c 0.214,-1.23 0.3294,-2.476 0.3294,-3.736 0,-22.484 -34.8234,-40.7113 -77.77989,-40.7113 l 0,44.4473 z"
         style="fill:#6aab10;stroke:none"
         inkscape:connector-curvature="0" />
      <path
         id="path3031"
         d="m 3.66661,117.372 c 4.94561,1.216 10.25179,2.206 15.79949,2.911 20.1934,2.564 38.2447,0.658 47.7918,-4.284 C 53.1774,105.555 29.9452,98.7327 3.66661,98.7327 l 0,18.6393 z"
         style="fill:#78c013;stroke:none"
         inkscape:connector-curvature="0" />
    </g>
    <g
       style="fill-rule:evenodd"
       id="g3033"
       transform="matrix(2.3435378,0,0,5.85886,-8.5928324,-0.23474822)">
      <path
         id="path3035"
         d="m 276.758,98.7327 c -42.957,0 -77.78,18.2273 -77.78,40.7113 0,1.26 0.115,2.506 0.329,3.736 l 77.451,0 0,-44.4473 z"
         style="fill:#6aab10;stroke:none"
         inkscape:connector-curvature="0" />
      <path
         id="path3037"
         d="m 276.758,98.7327 c -11.17,0 -21.786,1.2348 -31.387,3.4533 5.15,5.965 16.67,11.57 31.387,15.186 l 0,-18.6393 z"
         style="fill:#78c013;stroke:none"
         inkscape:connector-curvature="0" />
    </g>
    <g
       style="fill-rule:evenodd"
       id="g3039"
       transform="matrix(2.3435378,0,0,5.85886,-8.5928324,-0.23474822)">
      <path
         id="path3041"
         d="m 75.4563,113.857 c 33.8967,0 61.3757,14.383 61.3757,32.125 0,0.994 -0.091,1.977 -0.26,2.949 l -122.2312,0 c -0.169,-0.972 -0.26,-1.955 -0.26,-2.949 0,-17.742 27.4788,-32.125 61.3755,-32.125 z"
         style="fill:#7cbd22;stroke:none"
         inkscape:connector-curvature="0" />
      <path
         id="path3043"
         d="m 75.4563,113.857 c 8.8138,0 17.1913,0.974 24.7667,2.725 -5.4293,6.289 -19.8296,12.07 -37.2341,14.28 -15.9343,2.024 -30.1784,0.52 -37.7121,-3.38 11.111,-8.241 29.4432,-13.625 50.1795,-13.625 z"
         style="fill:#8ad228;stroke:none"
         inkscape:connector-curvature="0" />
    </g>
    <g
       style="fill-rule:evenodd"
       id="g3045"
       transform="matrix(2.3435378,0,0,5.85886,-8.5928324,-0.23474822)">
      <path
         id="path3047"
         d="m 203.817,118.983 c -28.943,0 -52.407,12.281 -52.407,27.43 0,0.849 0.078,1.688 0.222,2.518 l 104.37,0 c 0.144,-0.83 0.221,-1.669 0.221,-2.518 0,-15.149 -23.463,-27.43 -52.406,-27.43 z"
         style="fill:#7cbd22;stroke:none"
         inkscape:connector-curvature="0" />
      <path
         id="path3049"
         d="m 203.817,118.983 c -7.526,0 -14.679,0.831 -21.148,2.327 4.636,5.369 16.932,10.305 31.793,12.193 13.606,1.727 25.769,0.443 32.202,-2.887 -9.488,-7.037 -25.141,-11.633 -42.847,-11.633 z"
         style="fill:#8ad228;stroke:none"
         inkscape:connector-curvature="0" />
    </g>
    <g
       style="fill-rule:evenodd"
       id="g3087"
       transform="matrix(2.3435378,0,0,5.85886,-8.5928324,-0.23474822)">
      <path
         id="path3089"
         d="M 62.0909,138.514 C 46.4675,138.237 34.958,129.302 3.66661,129.302 l 0,15.548 273.09139,0 0,-15.548 c -16.56,0.189 -29.902,12.309 -45.739,11.147 -26.27,-1.928 -54.387,-12.902 -85.45,-11.147 -33.054,1.866 -52.6215,9.761 -83.4781,9.212 z"
         style="fill:#8ad228;stroke:none"
         inkscape:connector-curvature="0" />
      <path
         id="path3091"
         d="m 12.7701,129.569 c 21.1929,3.058 33.7368,11.797 52.6175,12.131 20.9101,0.37 40.5814,-7.382 67.2274,-11.322 -25.704,2.805 -43.9172,8.609 -70.5241,8.136 -14.0071,-0.249 -24.7073,-7.456 -49.3208,-8.945 z"
         style="fill:#a7e64e;stroke:none"
         inkscape:connector-curvature="0" />
      <path
         id="path3093"
         d="m 265.453,131.11 c -11.717,3.378 -22.349,10.225 -34.434,9.339 -18.271,-1.341 -37.436,-7.058 -57.868,-9.825 18.539,3.184 45.494,12.181 62.678,12.271 13.583,0.071 18.753,-7.894 29.624,-11.785 z"
         style="fill:#a7e64e;stroke:none"
         inkscape:connector-curvature="0" />
    </g>
  </g>
</svg>
