<?xml version="1.0" encoding="UTF-8" standalone="no"?>
<!-- Created with Inkscape (http://www.inkscape.org/) -->

<svg
   xmlns:dc="http://purl.org/dc/elements/1.1/"
   xmlns:cc="http://creativecommons.org/ns#"
   xmlns:rdf="http://www.w3.org/1999/02/22-rdf-syntax-ns#"
   xmlns:svg="http://www.w3.org/2000/svg"
   xmlns="http://www.w3.org/2000/svg"
   xmlns:sodipodi="http://sodipodi.sourceforge.net/DTD/sodipodi-0.dtd"
   xmlns:inkscape="http://www.inkscape.org/namespaces/inkscape"
   width="640"
   height="960"
   id="svg2"
   version="1.1"
   inkscape:version="0.48.5 r10040"
   sodipodi:docname="backgroundForest.svg"
   inkscape:export-filename="C:\dev\html5\flyingrabbithd\images\backgroundHill.png"
   inkscape:export-xdpi="90"
   inkscape:export-ydpi="90">
  <defs
     id="defs4" />
  <sodipodi:namedview
     id="base"
     pagecolor="#ffffff"
     bordercolor="#666666"
     borderopacity="1.0"
     inkscape:pageopacity="0.0"
     inkscape:pageshadow="2"
     inkscape:zoom="0.7"
     inkscape:cx="668.96285"
     inkscape:cy="558.48512"
     inkscape:document-units="px"
     inkscape:current-layer="layer1"
     showgrid="false"
     inkscape:window-width="1680"
     inkscape:window-height="988"
     inkscape:window-x="1358"
     inkscape:window-y="-8"
     inkscape:window-maximized="1" />
  <metadata
     id="metadata7">
    <rdf:RDF>
      <cc:Work
         rdf:about="">
        <dc:format>image/svg+xml</dc:format>
        <dc:type
           rdf:resource="http://purl.org/dc/dcmitype/StillImage" />
        <dc:title></dc:title>
      </cc:Work>
    </rdf:RDF>
  </metadata>
  <g
     inkscape:label="Calque 1"
     inkscape:groupmode="layer"
     id="layer1"
     transform="translate(0,-92.362168)">
    <path
       id="path3019"
       d="m 612.72355,609.05154 c -0.21326,0.15795 -0.42418,0.31028 -0.63744,0.44527 0.0772,0.35716 0.15711,0.70307 0.23904,1.0546 0.71947,-0.3281 1.43893,-0.64448 2.1584,-0.955 -0.58589,-0.15842 -1.17411,-0.33981 -1.76,-0.54487 z m -107.8168,64.7404 c -0.99834,-0.39278 -1.99669,-0.85539 -2.99504,-1.40027 -0.19451,0.10546 -0.38668,0.21655 -0.58119,0.31076 0.22029,0.77923 0.44761,1.54088 0.68431,2.29081 0.97022,-0.39278 1.93342,-0.79094 2.89192,-1.20106 z m -255.88151,-28.67912 0.23436,-0.9257 c -0.39372,0.20483 -0.78978,0.38669 -1.18583,0.55659 l 0.95147,0.36935 z m -16.73989,-6.49161 0.009,-0.0281 -0.0375,0.0188 0.0281,0.0141 z m -198.689347,-54.26655 0.189601,-0.69603 -0.04593,-0.0234 c -0.461208,0.2142 -0.92266,0.41716 -1.384093,0.60928 l 1.240425,0.10874 z M 4.4484114,583.00305 c -1.0688782,-0.50799 -2.1377563,-1.06397 -3.2066345,-1.66922 2.2176429,-5.46805 4.1890643,-11.25074 5.9667596,-17.29887 -1.0521735,-0.4845 -2.1031846,-1.0253 -3.155358,-1.61938 2.0638318,-5.0884 3.8760989,-10.49847 5.495221,-16.17515 -1.1469836,-0.49505 -2.2927486,-1.06982 -3.4397322,-1.71838 2.0274601,-4.99877 3.7753456,-10.35673 5.3169807,-16.00345 -0.976486,-0.41902 -1.9529728,-0.90348 -2.9294219,-1.45595 5.4874589,-13.52811 8.4897189,-30.23345 11.1215119,-48.15045 1.5793,19.14792 4.265932,36.69226 11.121736,48.15045 -1.385499,0.85718 -2.771018,1.53971 -4.156274,2.05646 1.74663,5.76746 3.887461,10.9631 6.543852,15.40294 -1.592894,0.98546 -3.185318,1.77993 -4.77823,2.39454 1.840858,5.64265 4.037203,10.76385 6.679307,15.23534 0.653847,-2.14374 1.262474,-4.35079 1.832422,-6.61756 -0.711742,-0.33232 -1.424177,-0.71539 -2.1359,-1.15364 3.99995,-10.7129 6.18857,-23.94103 8.106765,-38.12946 1.151146,15.16451 3.1101,29.05643 8.107704,38.12946 -1.010065,0.6779 -2.020374,1.21926 -3.030195,1.62877 1.273235,4.56991 2.83405,8.68166 4.770262,12.19758 -1.161214,0.78096 -2.321977,1.40964 -3.483191,1.89532 0.808989,2.69625 1.713126,5.24134 2.725535,7.61478 1.025307,-3.78716 1.991538,-7.67276 2.906699,-11.64914 -1.051555,-0.61875 -2.103803,-1.30892 -3.155358,-2.06879 2.063719,-6.49921 3.876699,-13.40681 5.49584,-20.65773 -1.146459,-0.63276 -2.293386,-1.36634 -3.440314,-2.19473 2.028098,-6.38503 3.776602,-13.22696 5.317487,-20.43749 -0.976317,-0.53371 -1.95286,-1.15358 -2.929422,-1.85904 5.487628,-17.27716 8.489006,-38.61162 11.121024,-61.49164 1.57932,24.45371 4.265951,46.85799 11.121718,61.49164 -1.3855,1.09444 -2.770999,1.96624 -4.15648,2.62655 1.746873,7.36694 3.887461,13.99916 6.543851,19.66998 -1.592893,1.25726 -3.185805,2.2738 -4.778473,3.05945 0.78321,3.06535 1.631571,6.01063 2.550238,8.82227 1.75321,-7.23218 2.99551,-15.25178 4.131188,-23.64987 1.022945,13.47715 2.763725,25.82351 7.205441,33.88764 -0.897106,0.60346 -1.795375,1.08216 -2.692725,1.44719 1.132154,4.05958 2.518835,7.71551 4.239929,10.84062 -1.032094,0.69308 -2.063963,1.25263 -3.095814,1.68557 0.829144,2.7607 1.769371,5.34333 2.839899,7.71851 0.220518,-0.77046 0.437061,-1.54796 0.64916,-2.33243 -0.681275,-0.34075 -1.362776,-0.72125 -2.044033,-1.13958 1.336979,-3.58149 2.510866,-7.38919 3.560059,-11.38549 -0.742658,-0.34872 -1.48556,-0.75284 -2.228217,-1.2081 1.313787,-3.5194 2.445941,-7.28959 3.444288,-11.26307 -0.632287,-0.29342 -1.264798,-0.63628 -1.897329,-1.0253 3.555372,-9.52065 5.499815,-21.27765 7.205442,-33.88765 0.952661,12.55029 2.527741,24.11858 6.326841,32.16336 1.06959,-3.38755 2.052,-6.89996 2.96223,-10.5219 -0.97654,-0.45278 -1.95357,-0.98195 -2.93012,-1.58251 5.48763,-14.69514 8.4897,-32.84181 11.12172,-52.30377 1.57908,20.80073 4.26595,39.85782 11.12151,52.30377 -1.38527,0.93156 -2.77077,1.6733 -4.15627,2.23518 1.74663,6.2672 3.88746,11.90816 6.54387,16.73117 -1.59291,1.06983 -3.18629,1.93455 -4.77872,2.6019 1.87671,6.24789 4.12229,11.91223 6.83423,16.83663 -1.5512,1.0417 -3.10285,1.91346 -4.65404,2.62472 0.97656,3.08823 2.03349,6.04695 3.18042,8.86507 0.58307,-1.86312 1.1195,-3.79069 1.61845,-5.77684 -0.55261,-0.25217 -1.10521,-0.55073 -1.65851,-0.89055 3.10775,-8.32487 4.80728,-18.60249 6.29824,-29.62474 0.8943,11.77922 2.41572,22.57302 6.29827,29.62474 -0.78462,0.5273 -1.5697,0.94328 -2.35409,1.26552 0.98897,3.54461 2.20152,6.74355 3.70607,9.47377 -0.90179,0.60347 -1.80334,1.09561 -2.70514,1.47058 0.72414,2.41385 1.5458,4.67537 2.48226,6.7494 0.19311,-0.67376 0.38224,-1.35339 0.5676,-2.03888 -0.59572,-0.29904 -1.19168,-0.63276 -1.7874,-0.99601 1.16918,-3.13449 2.1952,-6.46232 3.11197,-9.9542 -0.64916,-0.30466 -1.29832,-0.65619 -1.9477,-1.05459 1.14833,-3.0759 2.13846,-6.37093 3.0112,-9.84523 -0.55261,-0.25779 -1.10591,-0.55603 -1.65898,-0.89584 3.10753,-8.32366 4.80777,-18.59954 6.29873,-29.62235 0.89428,11.77977 2.41548,22.57297 6.29825,29.62235 -0.78461,0.5279 -1.5697,0.94796 -2.35407,1.26551 0.98895,3.54812 2.20152,6.74533 3.70605,9.47556 -0.90179,0.60932 -1.80334,1.0956 -2.70583,1.47057 1.06303,3.53875 2.33439,6.74941 3.87012,9.53822 -0.8786,0.59175 -1.75743,1.08389 -2.63555,1.4823 0.41667,1.31824 0.8596,2.59547 1.32995,3.82583 0.77806,-2.7478 1.5029,-5.58349 2.18021,-8.5012 -0.83573,-0.44528 -1.67166,-0.955 -2.50736,-1.53503 1.4783,-4.47616 2.75225,-9.27457 3.87596,-14.32547 -0.71172,-0.3745 -1.42346,-0.80974 -2.13518,-1.30423 3.99995,-12.10904 6.18787,-27.06203 8.10676,-43.09951 1.15115,17.14068 3.10941,32.84299 8.10699,43.09951 -1.00982,0.76634 -2.01966,1.38039 -3.02972,1.84207 1.08577,4.40174 2.37869,8.42678 3.93645,11.98311 2.72482,-8.00321 4.29686,-17.63166 5.68658,-27.90866 0.89476,11.77921 2.41619,22.57123 6.29874,29.61944 -0.78509,0.5273 -1.56901,0.94914 -2.3541,1.26552 0.90322,3.24581 1.99225,6.18695 3.32057,8.75313 0.79868,-2.37283 1.51462,-4.86285 2.16566,-7.45833 -0.55261,-0.25778 -1.10591,-0.55073 -1.65899,-0.89054 3.10776,-8.32544 4.80776,-18.60249 6.29825,-29.62474 0.89477,11.77982 2.41619,22.57067 6.29874,29.62474 -0.78437,0.5273 -1.56899,0.94327 -2.35409,1.26551 0.98899,3.54461 2.20153,6.74355 3.70608,9.47378 -0.90179,0.60346 -1.80311,1.09561 -2.70586,1.47057 1.06303,3.53875 2.33465,6.74941 3.87012,9.53823 -0.87859,0.58588 -1.75741,1.08389 -2.63555,1.48229 0.52169,1.6522 1.0832,3.23409 1.68947,4.74567 1.00866,-3.15792 1.95897,-6.39787 2.85746,-9.71984 -1.01122,-0.50387 -2.02151,-1.06632 -3.03253,-1.69321 1.98334,-5.30813 3.72459,-10.95607 5.28001,-16.87938 -1.10124,-0.52144 -2.20295,-1.11904 -3.30439,-1.79281 1.94864,-5.22025 3.62802,-10.81546 5.10891,-16.70595 -0.93837,-0.43684 -1.8767,-0.94328 -2.81506,-1.52036 5.27296,-14.12102 8.15761,-31.55821 10.68629,-50.25908 1.51792,19.98692 4.09909,38.29937 10.68606,50.25908 -1.33112,0.89402 -2.66225,1.60824 -3.99338,2.14725 1.67797,6.0194 3.7356,11.4447 6.28771,16.07906 -1.53033,1.0253 -3.06066,1.85726 -4.59099,2.49587 1.6686,5.56006 3.6442,10.63383 5.99477,15.11586 0.37965,-1.30067 0.73821,-2.63063 1.07802,-3.98402 -0.55307,-0.25779 -1.10615,-0.55659 -1.65922,-0.89641 3.10753,-8.31958 4.80894,-18.60188 6.29943,-29.62066 0.89289,11.78043 2.41619,22.57245 6.29709,29.62066 -0.78275,0.5273 -1.56783,0.94914 -2.35292,1.26552 0.98898,3.55046 2.20059,6.74354 3.70514,9.47377 -0.90227,0.60932 -1.80453,1.09561 -2.70679,1.47643 1.06397,3.53876 2.33651,6.74355 3.87152,9.53237 -0.87882,0.59174 -1.75765,1.08389 -2.63648,1.48815 0.41247,1.30653 0.85071,2.56618 1.31707,3.78482 1.2327,-4.06605 2.32948,-8.35473 3.31845,-12.83676 -0.77571,-0.43355 -1.55142,-0.93742 -2.32947,-1.50573 1.37331,-4.37071 2.5568,-9.05779 3.60201,-13.99681 -0.66087,-0.36325 -1.3241,-0.78509 -1.98497,-1.27137 3.71685,-11.82904 5.7487,-26.43809 7.53213,-42.1059 1.06865,16.74523 2.88958,32.08724 7.53213,42.1059 -0.93976,0.74993 -1.87718,1.34753 -2.81459,1.79867 1.18114,5.04447 2.63179,9.58509 4.43163,13.46951 -1.07803,0.86126 -2.1584,1.55846 -3.23643,2.09162 1.2702,5.03276 2.79116,9.59095 4.62849,13.5574 -1.05225,0.83782 -2.10215,1.54088 -3.15206,2.10919 1.02413,3.85513 2.18184,7.45833 3.49187,10.77444 0.5273,-2.10333 1.04053,-4.23595 1.53502,-6.39201 -1.0499,-0.62104 -2.10215,-1.30653 -3.1544,-2.06818 2.06466,-6.49748 3.87621,-13.40507 5.49559,-20.65834 -1.14599,-0.63276 -2.29432,-1.36512 -3.44031,-2.19122 2.02716,-6.38615 3.77544,-13.2293 5.31749,-20.44156 -0.97726,-0.53315 -1.95217,-1.15419 -2.92942,-1.85726 5.48856,-17.27543 8.48829,-38.60988 11.12243,-61.49108 1.57954,24.45371 4.26524,46.85799 11.12008,61.49108 -1.38503,1.09561 -2.77006,1.96858 -4.15509,2.62477 1.74594,7.36459 3.88559,14.00268 6.54316,19.67405 -1.59361,1.25966 -3.18487,2.27324 -4.77848,3.05833 1.87718,7.34701 4.12229,14.00268 6.83376,19.79123 -1.55142,1.2245 -3.10284,2.2498 -4.65427,3.08762 1.38035,5.1265 2.9224,9.9542 4.64958,14.43623 0.41715,-1.66392 0.82024,-3.34541 1.20927,-5.0562 -0.71244,-0.42746 -1.42487,-0.8964 -2.13731,-1.41784 1.39909,-4.44688 2.62711,-9.18083 3.72388,-14.14329 -0.77805,-0.43355 -1.55376,-0.93742 -2.32947,-1.50573 1.37331,-4.37071 2.5568,-9.05779 3.59967,-13.99095 -0.66088,-0.36935 -1.32175,-0.79095 -1.98263,-1.27724 3.71451,-11.82903 5.74635,-26.43517 7.52979,-42.10354 1.06865,16.7464 2.88958,32.08489 7.53213,42.10354 -0.93976,0.74994 -1.87718,1.34754 -2.81459,1.79867 1.18114,5.04448 2.63179,9.59096 4.43163,13.46952 -1.07803,0.86126 -2.1584,1.55846 -3.23643,2.09748 1.2702,5.0269 2.79115,9.59095 4.62849,13.55154 -1.05225,0.83782 -2.10216,1.54088 -3.15206,2.11505 1.05694,3.96645 2.25214,7.6751 3.61139,11.07324 0.51558,-1.74008 1.01241,-3.50945 1.49752,-5.29641 -1.05225,-0.52729 -2.10449,-1.11318 -3.15674,-1.75765 2.06465,-5.53077 3.87621,-11.40721 5.49559,-17.57073 -1.14833,-0.54487 -2.29432,-1.16591 -3.44031,-1.86897 2.02716,-5.43117 3.77544,-11.25487 5.31749,-17.38324 -0.97726,-0.45699 -1.95217,-0.98429 -2.92943,-1.58189 5.48857,-14.69988 8.4883,-32.84477 11.12009,-52.30612 1.57955,20.80303 4.26758,39.85604 11.12243,52.30612 -1.38503,0.93156 -2.77006,1.66977 -4.15509,2.23222 1.74593,6.26898 3.88558,11.91107 6.54316,16.73291 -1.59361,1.07217 -3.18487,1.93342 -4.77848,2.60133 1.87718,6.25141 4.12229,11.91106 6.83376,16.83837 -1.55142,1.03701 -3.10285,1.90998 -4.65427,2.62476 1.30301,4.11292 2.74897,8.00321 4.35898,11.6357 0.49449,-1.92756 0.96788,-3.89028 1.42019,-5.88815 -0.71244,-0.42184 -1.42253,-0.89641 -2.13497,-1.41199 1.39675,-4.45273 2.62477,-9.18083 3.72154,-14.14915 -0.77571,-0.43355 -1.55376,-0.93155 -2.32947,-1.49986 1.37331,-4.37657 2.5568,-9.0578 3.59967,-13.99682 -0.66088,-0.36325 -1.32176,-0.79095 -1.98263,-1.27137 3.7145,-11.82904 5.74869,-26.44104 7.52978,-42.10763 1.071,16.74462 2.88959,32.08898 7.53213,42.10763 -0.93741,0.74993 -1.87717,1.34753 -2.81459,1.79867 1.18349,5.04448 2.6318,9.58509 4.43163,13.46952 -1.07802,0.86125 -2.15605,1.55259 -3.23642,2.09161 0.99835,3.95473 2.15137,7.61066 3.49187,10.92677 0.54136,-1.96857 1.03116,-4.02503 1.48346,-6.1518 -0.41949,-0.22873 -0.83664,-0.498 -1.25379,-0.80266 2.34822,-7.47591 3.63248,-16.70361 4.75738,-26.60509 0.67494,10.5811 1.82561,20.27166 4.75738,26.60509 -0.59057,0.47456 -1.18349,0.84953 -1.7764,1.13661 0.60463,2.58376 1.3241,4.96246 2.17949,7.07751 3.77778,-10.53423 5.894,-23.40029 7.75477,-37.16861 1.15302,15.16273 3.10987,29.05409 8.10864,38.12946 -1.01007,0.67963 -2.02013,1.21864 -3.0302,1.62876 1.19755,4.29455 2.64586,8.17897 4.42226,11.54782 0.12655,-0.53902 0.2531,-1.08389 0.37965,-1.62877 -0.53667,-0.32247 -1.071,-0.67962 -1.60767,-1.06631 1.05225,-3.34541 1.97326,-6.90174 2.79819,-10.63383 -0.58354,-0.32247 -1.16708,-0.70306 -1.75063,-1.1249 1.03116,-3.28682 1.92171,-6.808 2.70445,-10.52251 -0.49683,-0.27514 -0.99366,-0.59175 -1.49049,-0.955 2.79349,-8.88789 4.32148,-19.86739 5.65964,-31.6437 0.80383,12.58483 2.17246,24.11507 5.66199,31.6437 -0.70541,0.56245 -1.41081,1.01359 -2.11622,1.3534 0.80149,3.41571 1.76469,6.52677 2.93646,9.24528 1.80921,-6.4506 3.41922,-13.25274 4.87455,-20.35368 -1.14833,-0.69134 -2.29432,-1.48815 -3.44031,-2.39627 2.02951,-6.96033 3.77544,-14.41866 5.31749,-22.28125 -0.97726,-0.58588 -1.95217,-1.25965 -2.92942,-2.03302 5.48856,-18.83624 8.49063,-42.10294 11.12243,-67.05465 1.57954,26.66662 4.26524,51.10097 11.12008,67.05465 -1.38503,1.19521 -2.77006,2.14434 -4.15509,2.87084 1.74594,8.0325 3.88793,15.26233 6.54316,21.44343 -1.59361,1.37683 -3.18487,2.48415 -4.77848,3.33955 0.80149,3.42157 1.67095,6.70839 2.61539,9.84288 3.00442,-9.76086 4.84175,-21.20321 6.48457,-33.34277 1.15068,15.16273 3.10988,29.05995 8.1063,38.12946 -1.00772,0.67963 -2.01779,1.21864 -3.02785,1.62876 1.2327,4.4293 2.73959,8.4309 4.59333,11.87591 0.45934,-1.75766 0.89289,-3.56218 1.30067,-5.40773 -0.58355,-0.32809 -1.16709,-0.70892 -1.75063,-1.13076 1.03116,-3.28682 1.9217,-6.80799 2.70679,-10.51665 -0.49683,-0.2756 -0.99366,-0.5976 -1.49049,-0.96085 2.79115,-8.88789 4.31914,-19.8674 5.65964,-31.6437 0.56714,8.88789 1.4155,17.25434 3.09582,24.05647 1.79515,-4.9976 3.36532,-10.30573 4.76441,-15.87165 -0.97726,-0.45136 -1.95451,-0.97843 -2.92942,-1.58189 5.48622,-14.69402 8.48829,-32.83891 11.12008,-52.30378 1.57955,20.80069 4.26524,39.85956 11.12243,52.30378 -1.38503,0.93156 -2.7724,1.67563 -4.15743,2.23223 1.74828,6.26898 3.88793,11.91106 6.5455,16.7329 -1.59361,1.07217 -3.18721,1.93928 -4.77848,2.60719 1.81156,6.03463 3.96996,11.52438 6.56191,16.32865 0.56479,-1.96858 1.09209,-3.99575 1.58189,-6.08736 -0.58354,-0.30466 -1.16708,-0.66205 -1.75062,-1.06045 1.03115,-3.09348 1.9217,-6.4096 2.70678,-9.90148 -0.49683,-0.25779 -0.99366,-0.55659 -1.49049,-0.90226 2.79115,-8.36645 4.31914,-18.69562 5.65965,-29.78059 0.80383,11.84662 2.17011,22.69723 5.65964,29.78059 -0.70541,0.53316 -1.41081,0.95499 -2.11622,1.27723 0.8882,3.56805 1.97795,6.7787 3.33017,9.52651 -0.81086,0.60932 -1.61938,1.10146 -2.43025,1.47643 0.46637,1.74594 0.9796,3.40986 1.54439,4.98003 1.21161,-2.70093 2.29667,-5.61279 3.26924,-8.68869 -1.12959,-0.51558 -2.26151,-1.15419 -3.3911,-1.91585 1.9756,-3.58562 3.61374,-7.71611 4.98236,-12.27431 -1.16239,-0.48628 -2.32244,-1.11318 -3.48484,-1.89241 1.93811,-3.51532 3.49656,-7.62824 4.77144,-12.19815 -1.01006,-0.41012 -2.02013,-0.94913 -3.03019,-1.62876 4.99642,-9.07537 6.95562,-22.96673 8.1063,-38.12946 1.91935,14.19016 4.10822,27.41361 8.10864,38.12946 -0.71244,0.43918 -1.42487,0.82024 -2.13731,1.1542 1.1249,4.47031 2.39744,8.71212 3.87621,12.67271 -0.8343,0.51558 -1.67094,0.96671 -2.50758,1.35926 1.09443,4.16565 2.30838,8.14381 3.67701,11.91106 0.19451,-0.96671 0.38668,-1.93928 0.57416,-2.92357 -0.53432,-0.38059 -1.07099,-0.80267 -1.60532,-1.27138 1.04991,-3.98988 1.97326,-8.23755 2.79584,-12.69615 -0.58354,-0.38668 -1.16708,-0.83781 -1.75062,-1.34753 1.0335,-3.92544 1.9217,-8.12624 2.70678,-12.5614 -0.49683,-0.32809 -0.99366,-0.70892 -1.49049,-1.14248 2.79116,-10.61625 4.31914,-23.72838 5.65965,-37.78847 0.80383,15.0268 2.17011,28.79512 5.65964,37.78847 -0.7054,0.67377 -1.41081,1.21279 -2.11621,1.61705 0.89054,4.52304 1.98029,8.60081 3.33251,12.08683 -0.81087,0.77337 -1.62173,1.39441 -2.43259,1.88069 0.95382,4.51718 2.09746,8.60667 3.47781,12.16299 -0.78978,0.7558 -1.57955,1.3827 -2.36932,1.89828 0.31872,1.4237 0.6515,2.81225 1.00538,4.15979 l 0.48042,-0.29295 c 1.08037,-4.31212 2.05763,-8.8293 2.95286,-13.52225 -0.61869,-0.43918 -1.23739,-0.93155 -1.85608,-1.47057 1.21395,-4.61092 2.28026,-9.52065 3.23174,-14.67059 -0.6726,-0.45089 -1.34754,-0.97257 -2.02248,-1.55845 1.19286,-4.53476 2.22168,-9.39761 3.12863,-14.51826 -0.57417,-0.38059 -1.15068,-0.82024 -1.72485,-1.3241 3.2294,-12.26845 4.99408,-27.4265 6.54316,-43.67958 0.70775,13.2504 1.79749,25.65187 4.06135,35.40687 2.48884,-4.66951 4.51131,-10.0831 6.17757,-16.05328 -1.38503,-0.56184 -2.77007,-1.30418 -4.1551,-2.23457 6.85485,-12.44712 9.54055,-31.50487 11.12009,-52.30494 2.63179,19.46252 5.63387,37.60858 11.12243,52.30494 -0.97725,0.60056 -1.95217,1.12669 -2.92942,1.58133 1.26785,5.05325 2.67866,9.88681 4.26758,14.46844 0.65853,-2.84155 1.25379,-5.80613 1.79749,-8.88204 -0.49683,-0.32809 -0.99366,-0.70892 -1.49049,-1.14247 2.7935,-10.61804 4.32149,-23.72895 5.65965,-37.79199 0.80383,15.02858 2.17246,28.79803 5.66198,37.79199 -0.7054,0.67376 -1.4108,1.20692 -2.11621,1.61118 0.36325,1.84554 0.75696,3.60906 1.18817,5.29641 0.71713,-3.14621 1.38035,-6.39787 1.99904,-9.74328 -0.72415,-0.48629 -1.44596,-1.04344 -2.17011,-1.67564 1.27957,-4.86697 2.38337,-10.08192 3.35594,-15.57814 -0.61635,-0.40731 -1.2327,-0.88057 -1.84905,-1.41897 3.46375,-13.17016 5.35967,-29.43435 7.02124,-46.87735 0.996,18.64289 2.69272,35.72208 7.02124,46.87735 -0.87648,0.83486 -1.75062,1.49926 -2.62476,2.00312 0.92335,4.6959 2.01778,8.99865 3.33485,12.81098 1.46706,-7.12554 2.3951,-15.37247 3.22705,-24.10335 0.2531,4.71578 0.57651,9.26694 1.05928,13.46662 1.37331,-3.79715 2.60133,-7.86616 3.70045,-12.1712 -1.59361,-0.7857 -3.18487,-1.80101 -4.77848,-3.05837 2.65758,-5.67077 4.79723,-12.30473 6.5455,-19.67171 -1.38503,-0.66027 -2.7724,-1.53146 -4.15743,-2.62533 6.85485,-14.63426 9.54288,-37.03854 11.12243,-61.49225 2.63179,22.88119 5.63386,44.21386 11.12009,61.49225 -0.97492,0.70484 -1.95217,1.32471 -2.92943,1.85843 1.54205,7.20991 3.29033,14.05367 5.31749,20.43861 -1.14599,0.82849 -2.29198,1.56197 -3.44031,2.19473 1.61938,7.25097 3.43328,14.15857 5.49559,20.6566 -1.0499,0.76048 -2.10215,1.44892 -3.1544,2.06757 1.72485,7.49526 3.63483,14.67823 5.77213,21.4745 l 0.45934,-0.0422 0,55.47169 c -0.5273,20.27165 0,157.93143 0,188.64943 l 0,88.0821 c -206.70941,0 -406.64364,0 -611.489464,0 l -0.891951,-4.5289 -0.498929,4.5289 -27.1196441760243,0 0,-352.11514 C 1.4909605,582.95266 2.9664144,582.9843 4.4484114,583.00211 z m 29.7735406,-8.87383 c 0.441298,-1.49462 0.86336,-3.01441 1.26926,-4.56171 -0.835705,-0.39184 -1.671636,-0.84658 -2.507341,-1.36043 0.677282,-1.8139 1.311444,-3.68756 1.908821,-5.61574 -1.455112,0.88239 -2.909756,1.62586 -4.364849,2.23987 1.12068,3.26104 2.347513,6.3668 3.694109,9.29801 z m 72.593898,-8.90491 c 0.14473,-0.53606 0.28919,-1.07451 0.43098,-1.61526 -0.44339,-0.20858 -0.88749,-0.42934 -1.33113,-0.66322 0.28732,0.77922 0.58729,1.5397 0.90015,2.27848 z m -2.1162,-5.95082 c 0.18958,-0.53901 0.3766,-1.08506 0.56149,-1.63171 -0.30394,0.14951 -0.6086,0.28591 -0.91326,0.40965 0.11511,0.41199 0.23131,0.81963 0.35177,1.22216 z m 73.06586,45.72958 c 0.73753,-2.23809 1.40403,-4.57577 2.0131,-7.00134 -0.25989,-0.11718 -0.51979,-0.25217 -0.77968,-0.38669 -0.97233,0.69135 -1.94467,1.26552 -2.91701,1.72251 0.5212,1.96272 1.08084,3.85513 1.68359,5.66552 z m 56.55872,20.49429 c 0.42418,-1.40613 0.82961,-2.84155 1.21161,-4.3004 -0.64916,-0.31029 -1.29832,-0.66206 -1.94748,-1.06046 0.49449,-1.31824 0.95851,-2.68336 1.39675,-4.08362 -1.12256,0.6972 -2.24277,1.2948 -3.36298,1.81038 0.83664,2.64235 1.73422,5.19095 2.7021,7.6341 z m 144.64549,40.91242 c -0.65619,0.51558 -1.31472,0.93742 -1.97091,1.26551 0.47105,1.86898 0.99834,3.63249 1.58892,5.27883 0.57416,-1.9217 1.11318,-3.89614 1.61938,-5.91744 -0.41246,-0.18749 -0.82492,-0.39841 -1.23739,-0.6269 z m 14.95412,19.38111 c 0.52964,-1.8514 1.02881,-3.74967 1.50455,-5.68896 -0.96085,0.60347 -1.92405,1.10147 -2.8849,1.50573 0.43121,1.43542 0.89289,2.82983 1.38035,4.18323 z m 183.4451,-75.09301 c 0.46871,-2.13263 0.90929,-4.32384 1.32644,-6.57364 -0.49917,-0.33419 -0.996,-0.70892 -1.49283,-1.13076 -0.5812,0.31638 -1.16239,0.60932 -1.74125,0.88469 0.60698,2.31424 1.24208,4.59334 1.90764,6.81971 z m -20.7075,-6.08736 c -1.38503,-0.57417 -2.76772,-1.30652 -4.1504,-2.19121 0.64213,2.61305 1.378,5.0269 2.21933,7.18882 -0.81555,0.77923 -1.63111,1.40027 -2.44666,1.86898 0.22733,1.16005 0.46637,2.29081 0.71713,3.39228 1.3569,-3.19894 2.57086,-6.63223 3.6606,-10.25887 z m -33.77975,55.69433 c -0.28826,-0.99601 -0.56948,-2.00373 -0.84602,-3.02318 0.57183,-0.28685 1.1413,-0.5976 1.71313,-0.93155 -0.28123,1.34167 -0.56714,2.65992 -0.86711,3.95473 z m -114.27793,20.06073 c 0.27419,-1.10732 0.54136,-2.22051 0.80617,-3.33955 -0.49448,0.34591 -0.98897,0.65619 -1.48345,0.9257 0.21794,0.82024 0.44292,1.62291 0.67728,2.41385 z m 1.21161,-5.07963 c 0.54135,-2.34354 1.06631,-4.72224 1.57485,-7.13023 -1.05224,-0.67377 -2.10449,-1.42956 -3.15674,-2.25566 l 0.1992,-0.68549 c -0.53901,0.37497 -1.07803,0.6972 -1.61704,0.96671 0.84367,3.33369 1.83265,6.39202 2.99973,9.10467 z m 74.87368,-4.86285 c 0.9257,2.92943 1.92639,5.74754 3.00442,8.4309 0.63041,-2.1502 1.21864,-4.36485 1.76937,-6.64395 -0.53667,-0.29904 -1.071,-0.63276 -1.60767,-0.99601 0.33513,-1.00772 0.65854,-2.02716 0.96788,-3.0759 -1.378,0.89641 -2.756,1.6522 -4.134,2.28496 z M 461.6802,657.45158 c 0.22498,-0.75579 0.44527,-1.50573 0.66557,-2.26738 -0.35857,0.22873 -0.71713,0.42793 -1.07569,0.60346 0.13124,0.56246 0.26951,1.11319 0.41012,1.66392 z m 1.20224,-4.16565 c 0.28122,-1.01358 0.55776,-2.03302 0.82726,-3.06418 -0.76633,-0.35716 -1.53501,-0.7558 -2.30135,-1.18935 0.44059,1.51744 0.92804,2.93529 1.47409,4.25353 z m -272.00412,-32.0714 c 0.12018,0.36934 0.24302,0.7265 0.36769,1.08389 l 0.21467,-0.77923 -0.58236,-0.30466 z m -1.51557,-11.89348 c 0.62596,2.08575 1.32481,4.05433 2.10685,5.88815 0.46331,-1.50573 0.90086,-3.05832 1.31567,-4.64022 -0.64916,-0.30466 -1.29832,-0.65619 -1.94748,-1.05459 0.14173,-0.38059 0.2812,-0.76751 0.41831,-1.1542 -0.63135,0.38106 -1.26201,0.69721 -1.89335,0.96086 z m 60.25775,29.28844 c 0.20858,0.48628 0.42184,0.96671 0.63979,1.43542 l 0.20857,-0.90813 c -0.28357,-0.16404 -0.56714,-0.33981 -0.84836,-0.52729 z m 116.64022,29.7923 c 0.4148,1.55846 0.84836,3.07004 1.30769,4.54648 0.49683,-1.82211 0.95851,-3.70866 1.38738,-5.64795 -0.16405,-0.0937 -0.3281,-0.18748 -0.49215,-0.28685 -0.73352,0.5273 -1.46939,0.99015 -2.20292,1.38855 z m 81.73322,6.26898 c 0.78274,2.60719 1.65454,5.07377 2.62711,7.38216 0.27185,-1.0956 0.53432,-2.19707 0.78977,-3.31611 -0.53667,-0.322 -1.071,-0.67377 -1.60767,-1.06631 0.47808,-1.51745 0.93039,-3.08176 1.35691,-4.68709 -1.05459,0.67963 -2.10918,1.24208 -3.16612,1.68735 z m 140.58649,-68.56624 c 0.1243,-0.6269 0.24607,-1.25965 0.37028,-1.89241 -0.22967,0.15842 -0.45934,0.30466 -0.689,0.44527 0.10311,0.48629 0.21091,0.96672 0.31872,1.44714 z m 15.18846,-13.46366 c 0.33279,-1.5526 0.64213,-3.15206 0.93039,-4.79255 -0.37731,-0.25216 -0.75462,-0.53901 -1.13193,-0.86711 0.0913,-0.3459 0.18036,-0.69134 0.26716,-1.04287 -0.47105,0.35715 -0.9421,0.67376 -1.41315,0.95499 0.41949,1.98615 0.86711,3.902 1.34753,5.74754 z"
       style="fill:#5f9a0e;fill-rule:evenodd;stroke:none"
       inkscape:connector-curvature="0" />
  </g>
</svg>
