<?xml version="1.0" encoding="UTF-8" standalone="no"?>
<!-- Created with Inkscape (http://www.inkscape.org/) -->

<svg
   xmlns:dc="http://purl.org/dc/elements/1.1/"
   xmlns:cc="http://creativecommons.org/ns#"
   xmlns:rdf="http://www.w3.org/1999/02/22-rdf-syntax-ns#"
   xmlns:svg="http://www.w3.org/2000/svg"
   xmlns="http://www.w3.org/2000/svg"
   xmlns:sodipodi="http://sodipodi.sourceforge.net/DTD/sodipodi-0.dtd"
   xmlns:inkscape="http://www.inkscape.org/namespaces/inkscape"
   width="210mm"
   height="297mm"
   id="svg13046"
   version="1.1"
   inkscape:version="0.48.5 r10040"
   sodipodi:docname="Nouveau document 3">
  <defs
     id="defs13048" />
  <sodipodi:namedview
     id="base"
     pagecolor="#ffffff"
     bordercolor="#666666"
     borderopacity="1.0"
     inkscape:pageopacity="0.0"
     inkscape:pageshadow="2"
     inkscape:zoom="1.4"
     inkscape:cx="364.05156"
     inkscape:cy="763.46306"
     inkscape:document-units="px"
     inkscape:current-layer="layer1"
     showgrid="false"
     inkscape:window-width="1192"
     inkscape:window-height="761"
     inkscape:window-x="75"
     inkscape:window-y="75"
     inkscape:window-maximized="0" />
  <metadata
     id="metadata13051">
    <rdf:RDF>
      <cc:Work
         rdf:about="">
        <dc:format>image/svg+xml</dc:format>
        <dc:type
           rdf:resource="http://purl.org/dc/dcmitype/StillImage" />
        <dc:title></dc:title>
      </cc:Work>
    </rdf:RDF>
  </metadata>
  <g
     inkscape:label="Calque 1"
     inkscape:groupmode="layer"
     id="layer1">
    <g
       style="fill-rule:evenodd"
       id="g3051"
       transform="matrix(1.0985334,0,0,2.8728202,79.575698,-299.15306)"
       inkscape:export-filename="C:\dev\html5\html5gaverttemplate\images\ground.png"
       inkscape:export-xdpi="192"
       inkscape:export-ydpi="192">
      <path
         id="path3053"
         d="m 276.758,179.659 -273.09139,0 0,-30.728 273.09139,0 0,30.728 z"
         style="fill:#663333;stroke:none"
         inkscape:connector-curvature="0" />
      <path
         id="path3055"
         d="m 276.758,144.85 -273.09139,0 0,4.081 273.09139,0 0,-4.081 z"
         style="fill:#9b5a4f;stroke:none"
         inkscape:connector-curvature="0" />
      <path
         id="path3057"
         d="m 17.4376,155.651 c 2.8482,0 5.1601,2.311 5.1601,5.16 0,2.848 -2.3119,5.16 -5.1601,5.16 -2.8482,0 -5.16,-2.312 -5.16,-5.16 0,-2.849 2.3118,-5.16 5.16,-5.16 z"
         style="fill:#522a2a;stroke:none"
         inkscape:connector-curvature="0" />
      <path
         id="path3059"
         d="m 34.3576,160.451 c 1.0597,0 1.9199,0.86 1.9199,1.919 0,1.06 -0.8602,1.92 -1.9199,1.92 -1.0597,0 -1.9199,-0.86 -1.9199,-1.92 0,-1.059 0.8602,-1.919 1.9199,-1.919 z"
         style="fill:#522a2a;stroke:none"
         inkscape:connector-curvature="0" />
      <path
         id="path3061"
         d="m 66.7576,158.051 c 1.8547,0 3.3601,1.505 3.3601,3.36 0,1.854 -1.5054,3.36 -3.3601,3.36 -1.8546,0 -3.36,-1.506 -3.36,-3.36 0,-1.855 1.5054,-3.36 3.36,-3.36 z"
         style="fill:#522a2a;stroke:none"
         inkscape:connector-curvature="0" />
      <path
         id="path3063"
         d="m 42.2776,170.051 c 0.9273,0 1.68,0.752 1.68,1.679 0,0.928 -0.7527,1.68 -1.68,1.68 -0.9273,0 -1.6799,-0.752 -1.6799,-1.68 0,-0.927 0.7526,-1.679 1.6799,-1.679 z"
         style="fill:#522a2a;stroke:none"
         inkscape:connector-curvature="0" />
      <path
         id="path3065"
         d="m 9.3977,171.251 c 0.39742,0 0.72,0.322 0.72,0.72 0,0.397 -0.32258,0.72 -0.72,0.72 -0.39742,0 -0.72,-0.323 -0.72,-0.72 0,-0.398 0.32258,-0.72 0.72,-0.72 z"
         style="fill:#522a2a;stroke:none"
         inkscape:connector-curvature="0" />
      <path
         id="path3067"
         d="m 107.318,157.811 c 4.901,0 8.88,3.978 8.88,8.879 0,4.902 -3.979,8.88 -8.88,8.88 -4.902,0 -8.8802,-3.978 -8.8802,-8.88 0,-4.901 3.9782,-8.879 8.8802,-8.879 z"
         style="fill:#522a2a;stroke:none"
         inkscape:connector-curvature="0" />
      <path
         id="path3069"
         d="m 144.638,158.291 c 2.053,0 3.72,1.666 3.72,3.719 0,2.054 -1.667,3.72 -3.72,3.72 -2.053,0 -3.72,-1.666 -3.72,-3.72 0,-2.053 1.667,-3.719 3.72,-3.719 z"
         style="fill:#522a2a;stroke:none"
         inkscape:connector-curvature="0" />
      <path
         id="path3071"
         d="m 182.918,160.211 c 2.252,0 4.08,1.828 4.08,4.08 0,2.252 -1.828,4.08 -4.08,4.08 -2.252,0 -4.08,-1.828 -4.08,-4.08 0,-2.252 1.828,-4.08 4.08,-4.08 z"
         style="fill:#522a2a;stroke:none"
         inkscape:connector-curvature="0" />
      <path
         id="path3073"
         d="m 88.2377,154.21 c 0.9935,0 1.8,0.807 1.8,1.8 0,0.994 -0.8065,1.8 -1.8,1.8 -0.9935,0 -1.8,-0.806 -1.8,-1.8 0,-0.993 0.8065,-1.8 1.8,-1.8 z"
         style="fill:#522a2a;stroke:none"
         inkscape:connector-curvature="0" />
      <path
         id="path3075"
         d="m 85.3577,166.931 c 1.126,0 2.04,0.914 2.04,2.04 0,1.126 -0.914,2.04 -2.04,2.04 -1.126,0 -2.04,-0.914 -2.04,-2.04 0,-1.126 0.914,-2.04 2.04,-2.04 z"
         style="fill:#522a2a;stroke:none"
         inkscape:connector-curvature="0" />
      <path
         id="path3077"
         d="m 214.118,155.65 c 0.53,0 0.96,0.431 0.96,0.96 0,0.53 -0.43,0.961 -0.96,0.961 -0.53,0 -0.96,-0.431 -0.96,-0.961 0,-0.529 0.43,-0.96 0.96,-0.96 z"
         style="fill:#522a2a;stroke:none"
         inkscape:connector-curvature="0" />
      <path
         id="path3079"
         d="m 253.118,152.051 c 2.45,0 4.44,1.989 4.44,4.44 0,2.45 -1.99,4.44 -4.44,4.44 -2.451,0 -4.44,-1.99 -4.44,-4.44 0,-2.451 1.989,-4.44 4.44,-4.44 z"
         style="fill:#522a2a;stroke:none"
         inkscape:connector-curvature="0" />
      <path
         id="path3081"
         d="m 221.678,163.571 c 1.258,0 2.28,1.021 2.28,2.28 0,1.258 -1.022,2.28 -2.28,2.28 -1.259,0 -2.28,-1.022 -2.28,-2.28 0,-1.259 1.021,-2.28 2.28,-2.28 z"
         style="fill:#522a2a;stroke:none"
         inkscape:connector-curvature="0" />
      <path
         id="path3083"
         d="m 269.318,166.45 c 0.927,0 1.68,0.753 1.68,1.68 0,0.928 -0.753,1.681 -1.68,1.681 -0.927,0 -1.68,-0.753 -1.68,-1.681 0,-0.927 0.753,-1.68 1.68,-1.68 z"
         style="fill:#522a2a;stroke:none"
         inkscape:connector-curvature="0" />
      <path
         id="path3085"
         d="m 160.118,171.01 c 1.987,0 3.6,1.613 3.6,3.6 0,1.988 -1.613,3.601 -3.6,3.601 -1.987,0 -3.6,-1.613 -3.6,-3.601 0,-1.987 1.613,-3.6 3.6,-3.6 z"
         style="fill:#522a2a;stroke:none"
         inkscape:connector-curvature="0" />
    </g>
  </g>
</svg>
