<?xml version="1.0" encoding="UTF-8" standalone="no"?>
<!-- Created with Inkscape (http://www.inkscape.org/) -->

<svg
   xmlns:dc="http://purl.org/dc/elements/1.1/"
   xmlns:cc="http://creativecommons.org/ns#"
   xmlns:rdf="http://www.w3.org/1999/02/22-rdf-syntax-ns#"
   xmlns:svg="http://www.w3.org/2000/svg"
   xmlns="http://www.w3.org/2000/svg"
   xmlns:sodipodi="http://sodipodi.sourceforge.net/DTD/sodipodi-0.dtd"
   xmlns:inkscape="http://www.inkscape.org/namespaces/inkscape"
   width="210mm"
   height="297mm"
   id="svg2"
   version="1.1"
   inkscape:version="0.48.5 r10040"
   sodipodi:docname="play.svg">
  <defs
     id="defs4" />
  <sodipodi:namedview
     id="base"
     pagecolor="#ffffff"
     bordercolor="#666666"
     borderopacity="1.0"
     inkscape:pageopacity="0.0"
     inkscape:pageshadow="2"
     inkscape:zoom="0.98994949"
     inkscape:cx="-44.841604"
     inkscape:cy="869.23887"
     inkscape:document-units="px"
     inkscape:current-layer="layer1"
     showgrid="false"
     inkscape:window-width="1680"
     inkscape:window-height="988"
     inkscape:window-x="-8"
     inkscape:window-y="-8"
     inkscape:window-maximized="1" />
  <metadata
     id="metadata7">
    <rdf:RDF>
      <cc:Work
         rdf:about="">
        <dc:format>image/svg+xml</dc:format>
        <dc:type
           rdf:resource="http://purl.org/dc/dcmitype/StillImage" />
        <dc:title></dc:title>
      </cc:Work>
    </rdf:RDF>
  </metadata>
  <g
     inkscape:label="Calque 1"
     inkscape:groupmode="layer"
     id="layer1">
    <g
       id="g3790"
       inkscape:export-filename="C:\dev\html5\flyingrabbithd\images\control-play.png"
       inkscape:export-xdpi="90"
       inkscape:export-ydpi="90">
      <g
         transform="matrix(4.0488656,0,0,4.0488656,-539.87557,153.19819)"
         id="g9229"
         style="fill-rule:evenodd">
        <path
           id="path9231"
           d="m 182.97,-22.1306 33.301,0 c 6.6,0 12,5.3997 12,11.9999 l 0,3e-4 c 0,6.60013 -5.4,11.99985 -12,11.99985 l -33.301,0 c -6.6,0 -11.999,-5.39972 -11.999,-11.99985 l 0,-3e-4 c 0,-6.6002 5.399,-11.9999 11.999,-11.9999 z"
           style="fill:#000000;stroke:none"
           inkscape:connector-curvature="0" />
        <path
           id="path9233"
           d="m 182.97,-23.4077 33.301,0 c 6.6,0 12,5.3998 12,12 l 0,2e-4 c 0,6.60025 -5.4,11.999968 -12,11.999968 l -33.301,0 c -6.6,0 -11.999,-5.399718 -11.999,-11.999968 l 0,-2e-4 c 0,-6.6002 5.399,-12 11.999,-12 z"
           style="fill:#ffffff;stroke:none"
           inkscape:connector-curvature="0" />
        <path
           id="path9235"
           d="m 183.633,-21.7196 31.975,0 c 5.929,0 10.781,4.8515 10.781,10.7816 l 0,0 c 0,5.93007 -4.852,10.781506 -10.781,10.781506 l -31.975,0 c -5.929,0 -10.781,-4.851436 -10.781,-10.781506 l 0,0 c 0,-5.9301 4.852,-10.7816 10.781,-10.7816 z"
           style="fill:#e6e6e6;stroke:none"
           inkscape:connector-curvature="0" />
        <g
           id="g9237">
          <path
             id="path9239"
             d="m 183.268,-21.4948 32.705,0 c 5.548,0 10.087,4.5391 10.087,10.0871 l 0,2e-4 c 0,5.548 -4.539,10.08713 -10.087,10.08713 l -32.705,0 c -5.548,0 -10.087,-4.53913 -10.087,-10.08713 l 0,-2e-4 c 0,-5.548 4.539,-10.0871 10.087,-10.0871 z"
             style="fill:#8ad228;stroke:none"
             inkscape:connector-curvature="0" />
          <path
             id="path9241"
             d="m 188.162,-8.09375 22.917,0 c 1.604,0 2.917,1.31274 2.917,2.91742 l 0,2.4e-4 c 0,1.60474 -1.313,2.91742 -2.917,2.91742 l -22.917,0 c -1.604,0 -2.917,-1.31268 -2.917,-2.91742 l 0,-2.4e-4 c 0,-1.60468 1.313,-2.91742 2.917,-2.91742 z"
             style="fill:#a7e64e;stroke:none"
             inkscape:connector-curvature="0" />
        </g>
        <path
           id="path9243"
           d="m 215.973,-4.02039 -32.705,0 c -5.09,0 -9.331,-3.82135 -9.996,-8.73721 -0.06,0.4416 -0.091,0.8924 -0.091,1.3501 0,5.548 4.539,10.08713 10.087,10.08713 l 32.705,0 c 5.548,0 10.087,-4.53913 10.087,-10.08733 0,-0.4575 -0.031,-0.9083 -0.091,-1.3499 -0.665,4.91586 -4.906,8.73721 -9.996,8.73721 z"
           style="fill:#a7e64e;stroke:none"
           inkscape:connector-curvature="0" />
        <path
           id="path9245"
           d="m 218.571,-4.99945 c 0.696,0 1.26,0.5581 1.26,1.24664 0,0.68854 -0.564,1.24671 -1.26,1.24671 -0.696,0 -1.261,-0.55817 -1.261,-1.24671 0,-0.68854 0.565,-1.24664 1.261,-1.24664 z"
           style="fill:#ffffff;stroke:none"
           inkscape:connector-curvature="0" />
        <path
           id="path9247"
           d="m 182.963,-20.0744 33.315,0 c 2.168,0 3.942,1.7737 3.942,3.9416 l 0,0 c 0,2.1679 -1.774,3.9416 -3.942,3.9416 l -33.315,0 c -2.168,0 -3.942,-1.7737 -3.942,-3.9416 l 0,0 c 0,-2.1679 1.774,-3.9416 3.942,-3.9416 z"
           style="fill:#a7e64e;stroke:none"
           inkscape:connector-curvature="0" />
        <path
           id="path9249"
           d="m 178.261,-19.1982 c 1.756,-1.2831 3.553,-1.812 4.014,-1.1814 0.424,0.7912 -0.721,2.1653 -1.37,2.5093 -1.242,0.6586 -1.442,0.7791 -2.496,1.7209 -0.533,0.4759 -1.883,1.0465 -2.493,0.4162 -0.319,-1.0261 0.692,-2.0767 1.655,-2.908 0.23,-0.1993 0.45,-0.3711 0.69,-0.557 z"
           style="fill:#ffffff;stroke:none"
           inkscape:connector-curvature="0" />
        <path
           id="path9251"
           d="m 175.387,-15.1764 c 0.696,0 1.26,0.5581 1.26,1.2467 0,0.6885 -0.564,1.2467 -1.26,1.2467 -0.697,0 -1.261,-0.5582 -1.261,-1.2467 0,-0.6886 0.564,-1.2467 1.261,-1.2467 z"
           style="fill:#ffffff;stroke:none"
           inkscape:connector-curvature="0" />
      </g>
      <flowRoot
         style="font-size:64px;font-style:normal;font-variant:normal;font-weight:normal;font-stretch:normal;line-height:125%;letter-spacing:0px;word-spacing:0px;fill:#d73333;fill-opacity:1;stroke:none;font-family:Brady Bunch Remastered;-inkscape-font-specification:Brady Bunch Remastered;text-anchor:middle;text-align:center"
         id="flowRoot3014"
         xml:space="preserve"><flowRegion
           id="flowRegion3016"><rect
             style="font-size:64px;font-style:normal;font-variant:normal;font-weight:normal;font-stretch:normal;text-align:center;text-anchor:middle;font-family:Brady Bunch Remastered;-inkscape-font-specification:Brady Bunch Remastered;fill:#d73333;fill-opacity:1"
             y="75.933617"
             x="136.42859"
             height="97.857178"
             width="258.57144"
             id="rect3018" /></flowRegion><flowPara
           style="font-size:64px;fill:#d73333;fill-opacity:1"
           id="flowPara3020">PLAY</flowPara></flowRoot>    </g>
  </g>
</svg>
